<?xml version="1.0" encoding="UTF-8"?>
<svg xmlns="http://www.w3.org/2000/svg" xmlns:xlink="http://www.w3.org/1999/xlink" width="400px" height="221px" viewBox="0 0 400 221" version="1.1">
<g id="surface1">
<path style=" stroke:none;fill-rule:nonzero;fill:rgb(94.901961%,94.901961%,94.901961%);fill-opacity:1;" d="M 205.75 220.078125 C 199.429688 221.007812 193.03125 221.316406 186.648438 221 C 171.261719 220.222656 156.128906 215.746094 143.195312 207.328125 C 137.460938 203.597656 131.992188 199.011719 129.023438 192.855469 C 124.996094 184.488281 126.402344 173.902344 132.15625 166.617188 C 134.253906 163.988281 136.835938 161.785156 139.761719 160.128906 C 140.195312 159.882812 140.636719 159.648438 141.085938 159.421875 C 145.957031 156.96875 151.433594 155.96875 156.859375 156.53125 C 166.082031 157.542969 174.597656 163.175781 179.515625 171.050781 C 183.898438 178.074219 185.425781 186.355469 186.324219 194.660156 C 186.492188 196.222656 186.640625 197.792969 186.78125 199.351562 C 185.996094 203.871094 184.765625 208.300781 183.101562 212.574219 C 183.015625 212.78125 182.949219 212.996094 182.894531 213.214844 C 183.835938 215.261719 184.734375 217.324219 185.585938 219.40625 C 186.382812 219.839844 187.28125 220.066406 188.191406 220.066406 L 205.710938 220.066406 Z M 205.75 220.078125 "/>
<path style=" stroke:none;fill-rule:nonzero;fill:rgb(100%,100%,100%);fill-opacity:1;" d="M 185.222656 220.476562 C 184.988281 220.582031 184.71875 220.585938 184.480469 220.492188 C 184.242188 220.398438 184.050781 220.214844 183.949219 219.976562 C 183.875 219.796875 183.804688 219.621094 183.726562 219.441406 C 183.050781 217.792969 182.339844 216.15625 181.59375 214.539062 C 172.0625 193.664062 157.847656 175.261719 140.054688 160.773438 C 139.84375 160.628906 139.734375 160.378906 139.761719 160.128906 C 139.8125 159.839844 139.996094 159.59375 140.253906 159.453125 C 140.511719 159.316406 140.816406 159.304688 141.085938 159.421875 C 141.15625 159.453125 141.222656 159.496094 141.28125 159.542969 C 148.898438 165.746094 155.882812 172.683594 162.136719 180.253906 C 168.390625 187.816406 173.898438 195.96875 178.582031 204.597656 C 179.859375 206.953125 181.074219 209.34375 182.21875 211.765625 C 182.445312 212.246094 182.671875 212.730469 182.894531 213.214844 C 183.835938 215.261719 184.734375 217.324219 185.585938 219.40625 C 185.597656 219.441406 185.613281 219.476562 185.628906 219.511719 C 185.714844 219.691406 185.71875 219.902344 185.644531 220.085938 C 185.566406 220.269531 185.410156 220.414062 185.222656 220.476562 Z M 185.222656 220.476562 "/>
<path style=" stroke:none;fill-rule:nonzero;fill:rgb(100%,100%,100%);fill-opacity:1;" d="M 141.109375 139.949219 C 141.109375 150.101562 132.882812 158.328125 122.734375 158.328125 C 112.585938 158.328125 104.359375 150.101562 104.359375 139.949219 C 104.359375 129.800781 112.585938 121.574219 122.734375 121.574219 C 132.882812 121.574219 141.109375 129.800781 141.109375 139.949219 Z M 141.109375 139.949219 "/>
<path style=" stroke:none;fill-rule:nonzero;fill:rgb(100%,100%,100%);fill-opacity:1;" d="M 120.914062 146.960938 C 120.5 146.960938 120.097656 146.828125 119.765625 146.582031 L 119.746094 146.566406 L 115.425781 143.257812 C 114.585938 142.613281 114.425781 141.410156 115.070312 140.566406 C 115.714844 139.726562 116.921875 139.566406 117.761719 140.210938 L 120.558594 142.355469 L 127.167969 133.734375 C 127.8125 132.894531 129.015625 132.734375 129.859375 133.382812 L 129.816406 133.4375 L 129.859375 133.382812 C 130.699219 134.027344 130.855469 135.230469 130.214844 136.070312 L 122.4375 146.210938 C 122.074219 146.6875 121.511719 146.964844 120.914062 146.960938 Z M 120.914062 146.960938 "/>
<path style=" stroke:none;fill-rule:nonzero;fill:rgb(24.705882%,23.921569%,33.72549%);fill-opacity:1;" d="M 399.285156 221.207031 L 0.5625 221.207031 C 0.25 221.207031 0 220.957031 0 220.648438 C 0 220.339844 0.25 220.085938 0.5625 220.085938 L 399.285156 220.085938 C 399.59375 220.085938 399.84375 220.339844 399.84375 220.648438 C 399.84375 220.957031 399.59375 221.207031 399.285156 221.207031 Z M 399.285156 221.207031 "/>
<path style=" stroke:none;fill-rule:nonzero;fill:rgb(18.431373%,18.039216%,25.490196%);fill-opacity:1;" d="M 91.628906 50.421875 C 91.628906 57.953125 85.527344 64.058594 77.996094 64.058594 C 70.464844 64.058594 64.359375 57.953125 64.359375 50.421875 C 64.359375 42.890625 70.464844 36.785156 77.996094 36.785156 C 85.527344 36.785156 91.628906 42.890625 91.628906 50.421875 Z M 91.628906 50.421875 "/>
<path style=" stroke:none;fill-rule:nonzero;fill:rgb(18.431373%,18.039216%,25.490196%);fill-opacity:1;" d="M 68.351562 36.085938 C 66.699219 34.433594 63.570312 34.878906 61.367188 37.085938 C 59.164062 39.289062 58.71875 42.414062 60.371094 44.066406 C 62.023438 45.71875 65.148438 45.273438 67.351562 43.070312 C 69.554688 40.867188 70.003906 37.738281 68.351562 36.085938 Z M 68.351562 36.085938 "/>
<path style=" stroke:none;fill-rule:nonzero;fill:rgb(18.431373%,18.039216%,25.490196%);fill-opacity:1;" d="M 88.679688 32.628906 C 85.816406 31.40625 82.746094 32.15625 81.828125 34.304688 C 80.910156 36.457031 82.492188 39.191406 85.355469 40.414062 C 88.222656 41.636719 91.289062 40.886719 92.207031 38.738281 C 93.125 36.589844 91.546875 33.855469 88.679688 32.628906 Z M 88.679688 32.628906 "/>
<path style=" stroke:none;fill-rule:nonzero;fill:rgb(100%,72.156863%,72.156863%);fill-opacity:1;" d="M 115.964844 129.152344 C 116.660156 127.828125 116.734375 126.261719 116.167969 124.875 C 115.597656 123.488281 114.445312 122.425781 113.015625 121.972656 L 93.316406 80.289062 L 84.304688 86.609375 L 106.503906 125.597656 C 105.886719 128.101562 107.238281 130.667969 109.652344 131.578125 C 112.066406 132.484375 114.777344 131.445312 115.964844 129.152344 Z M 115.964844 129.152344 "/>
<path style=" stroke:none;fill-rule:nonzero;fill:rgb(80%,80%,80%);fill-opacity:1;" d="M 97.832031 87.242188 L 87.371094 91.921875 C 86.769531 92.191406 86.078125 92.1875 85.480469 91.90625 C 84.882812 91.625 84.4375 91.101562 84.257812 90.464844 L 81.171875 79.460938 C 79.773438 76.28125 81.210938 72.566406 84.386719 71.15625 C 87.5625 69.75 91.277344 71.175781 92.695312 74.347656 L 98.820312 83.953125 C 99.175781 84.507812 99.269531 85.191406 99.082031 85.824219 C 98.890625 86.457031 98.4375 86.972656 97.832031 87.242188 Z M 97.832031 87.242188 "/>
<path style=" stroke:none;fill-rule:nonzero;fill:rgb(100%,72.156863%,72.156863%);fill-opacity:1;" d="M 49.511719 133.285156 C 50.96875 132.949219 52.203125 131.980469 52.878906 130.644531 C 53.558594 129.308594 53.605469 127.738281 53.015625 126.363281 L 71.675781 84.203125 L 61.003906 81.511719 L 46.019531 123.800781 C 43.71875 124.972656 42.660156 127.675781 43.550781 130.09375 C 44.441406 132.515625 47.003906 133.886719 49.511719 133.285156 Z M 49.511719 133.285156 "/>
<path style=" stroke:none;fill-rule:nonzero;fill:rgb(100%,72.156863%,72.156863%);fill-opacity:1;" d="M 44.421875 209.707031 L 49.851562 211.683594 L 60.054688 191.683594 L 52.046875 188.769531 Z M 44.421875 209.707031 "/>
<path style=" stroke:none;fill-rule:nonzero;fill:rgb(18.431373%,18.039216%,25.490196%);fill-opacity:1;" d="M 58.484375 220.535156 L 41.425781 214.324219 L 43.824219 207.730469 L 54.292969 211.542969 C 57.933594 212.867188 59.808594 216.894531 58.484375 220.535156 Z M 58.484375 220.535156 "/>
<path style=" stroke:none;fill-rule:nonzero;fill:rgb(18.431373%,18.039216%,25.490196%);fill-opacity:1;" d="M 57.261719 198.199219 C 56.929688 198.199219 56.601562 198.125 56.296875 197.980469 L 50.0625 195.027344 C 49 194.53125 48.496094 193.304688 48.898438 192.203125 L 66.5 143.449219 C 66.800781 142.625 67.542969 142.046875 68.417969 141.960938 C 69.289062 141.875 70.132812 142.300781 70.582031 143.050781 L 79.894531 158.574219 C 80.316406 159.277344 80.324219 160.152344 79.917969 160.867188 L 59.242188 197.058594 C 58.832031 197.765625 58.078125 198.199219 57.261719 198.199219 Z M 57.261719 198.199219 "/>
<path style=" stroke:none;fill-rule:nonzero;fill:rgb(100%,72.156863%,72.156863%);fill-opacity:1;" d="M 90 53.679688 C 90 60.070312 84.820312 65.25 78.429688 65.25 C 72.039062 65.25 66.855469 60.070312 66.855469 53.679688 C 66.855469 47.285156 72.039062 42.105469 78.429688 42.105469 C 84.820312 42.105469 90 47.285156 90 53.679688 Z M 90 53.679688 "/>
<path style=" stroke:none;fill-rule:nonzero;fill:rgb(80%,80%,80%);fill-opacity:1;" d="M 94.800781 106.296875 L 74.308594 100.664062 L 63.414062 78.863281 C 62.347656 76.734375 62.460938 74.207031 63.714844 72.183594 C 64.964844 70.15625 67.175781 68.925781 69.554688 68.925781 L 85.855469 68.925781 C 87.546875 68.921875 89.179688 69.546875 90.441406 70.679688 C 94.8125 74.597656 104 85.890625 94.886719 106.101562 Z M 94.800781 106.296875 "/>
<path style=" stroke:none;fill-rule:nonzero;fill:rgb(80%,80%,80%);fill-opacity:1;" d="M 69.148438 91.742188 L 58.769531 86.882812 C 58.171875 86.601562 57.726562 86.074219 57.546875 85.441406 C 57.367188 84.804688 57.472656 84.125 57.839844 83.574219 L 64.148438 74.042969 C 65.636719 70.90625 69.386719 69.566406 72.527344 71.046875 C 75.671875 72.53125 77.019531 76.277344 75.546875 79.421875 L 72.285156 90.335938 C 72.097656 90.96875 71.640625 91.488281 71.039062 91.757812 C 70.4375 92.027344 69.746094 92.023438 69.148438 91.742188 Z M 69.148438 91.742188 "/>
<path style=" stroke:none;fill-rule:nonzero;fill:rgb(100%,72.156863%,72.156863%);fill-opacity:1;" d="M 81.710938 215.171875 L 87.484375 215.171875 L 90.234375 192.886719 L 81.707031 192.886719 Z M 81.710938 215.171875 "/>
<path style=" stroke:none;fill-rule:nonzero;fill:rgb(18.431373%,18.039216%,25.490196%);fill-opacity:1;" d="M 98.625 220.535156 L 80.472656 220.535156 L 80.472656 213.519531 L 91.609375 213.519531 C 95.484375 213.519531 98.625 216.660156 98.625 220.535156 Z M 98.625 220.535156 "/>
<path style=" stroke:none;fill-rule:nonzero;fill:rgb(18.431373%,18.039216%,25.490196%);fill-opacity:1;" d="M 83.890625 206.679688 C 82.820312 206.679688 81.894531 205.929688 81.675781 204.882812 C 80.015625 197.058594 71.394531 156.980469 64.664062 136.339844 C 57.816406 115.335938 69.476562 105.769531 71.886719 104.066406 C 72.140625 103.886719 72.34375 103.640625 72.476562 103.355469 L 74.222656 99.507812 C 74.59375 98.695312 75.402344 98.175781 76.296875 98.175781 L 76.308594 98.175781 C 89.421875 98.253906 93.828125 102.386719 95.117188 104.160156 C 95.5 104.695312 95.628906 105.371094 95.46875 106.011719 L 87.175781 140.242188 C 87.125 140.453125 87.113281 140.671875 87.140625 140.890625 L 95.394531 203.042969 C 95.472656 203.648438 95.308594 204.257812 94.933594 204.738281 C 94.558594 205.21875 94.007812 205.527344 93.40625 205.597656 L 84.15625 206.664062 C 84.066406 206.675781 83.980469 206.679688 83.890625 206.679688 Z M 83.890625 206.679688 "/>
<path style=" stroke:none;fill-rule:nonzero;fill:rgb(18.431373%,18.039216%,25.490196%);fill-opacity:1;" d="M 66.269531 46.398438 C 68.914062 48.222656 72.050781 49.191406 75.261719 49.179688 C 74.117188 49.972656 72.8125 50.507812 71.441406 50.75 C 75.710938 51.667969 80.125 51.691406 84.402344 50.824219 C 85.355469 50.671875 86.273438 50.355469 87.117188 49.890625 C 87.96875 49.417969 88.578125 48.601562 88.792969 47.652344 C 89.078125 46.027344 87.8125 44.550781 86.496094 43.554688 C 82.414062 40.515625 77.1875 39.472656 72.253906 40.707031 C 70.664062 41.121094 69.070312 41.816406 68.039062 43.09375 C 67.003906 44.371094 66.699219 46.339844 67.683594 47.65625 Z M 66.269531 46.398438 "/>
<path style=" stroke:none;fill-rule:nonzero;fill:rgb(100%,100%,100%);fill-opacity:1;" d="M 284.808594 90.472656 C 284.808594 93.855469 282.066406 96.597656 278.683594 96.597656 C 275.300781 96.597656 272.558594 93.855469 272.558594 90.472656 C 272.558594 87.089844 275.300781 84.347656 278.683594 84.347656 C 282.066406 84.347656 284.808594 87.089844 284.808594 90.472656 Z M 284.808594 90.472656 "/>
<path style=" stroke:none;fill-rule:nonzero;fill:rgb(100%,100%,100%);fill-opacity:1;" d="M 278.074219 92.808594 C 277.9375 92.808594 277.804688 92.765625 277.691406 92.683594 L 277.6875 92.679688 L 276.246094 91.574219 C 276.066406 91.4375 275.96875 91.210938 276 90.984375 C 276.03125 90.757812 276.179688 90.5625 276.390625 90.476562 C 276.601562 90.390625 276.84375 90.421875 277.023438 90.558594 L 277.957031 91.277344 L 280.160156 88.402344 C 280.375 88.121094 280.777344 88.070312 281.058594 88.285156 L 281.042969 88.300781 L 281.058594 88.285156 C 281.335938 88.5 281.390625 88.898438 281.175781 89.179688 L 278.582031 92.5625 C 278.460938 92.71875 278.273438 92.8125 278.074219 92.808594 Z M 278.074219 92.808594 "/>
<path style=" stroke:none;fill-rule:nonzero;fill:rgb(100%,100%,100%);fill-opacity:1;" d="M 284.808594 108.378906 C 284.808594 111.761719 282.066406 114.503906 278.683594 114.503906 C 275.300781 114.503906 272.558594 111.761719 272.558594 108.378906 C 272.558594 104.996094 275.300781 102.253906 278.683594 102.253906 C 282.066406 102.253906 284.808594 104.996094 284.808594 108.378906 Z M 284.808594 108.378906 "/>
<path style=" stroke:none;fill-rule:nonzero;fill:rgb(100%,100%,100%);fill-opacity:1;" d="M 278.074219 110.714844 C 277.9375 110.714844 277.804688 110.671875 277.691406 110.589844 L 277.6875 110.585938 L 276.246094 109.480469 C 276.066406 109.34375 275.96875 109.117188 276 108.890625 C 276.03125 108.664062 276.179688 108.46875 276.390625 108.382812 C 276.601562 108.292969 276.84375 108.328125 277.023438 108.464844 L 277.957031 109.183594 L 280.160156 106.308594 C 280.375 106.027344 280.777344 105.972656 281.058594 106.191406 L 281.042969 106.207031 L 281.058594 106.191406 C 281.335938 106.40625 281.390625 106.804688 281.175781 107.085938 L 278.582031 110.464844 C 278.460938 110.625 278.273438 110.71875 278.074219 110.714844 Z M 278.074219 110.714844 "/>
<path style=" stroke:none;fill-rule:nonzero;fill:rgb(100%,100%,100%);fill-opacity:1;" d="M 288.105469 129.113281 C 288.105469 132.496094 285.363281 135.238281 281.980469 135.238281 C 278.597656 135.238281 275.855469 132.496094 275.855469 129.113281 C 275.855469 125.730469 278.597656 122.988281 281.980469 122.988281 C 285.363281 122.988281 288.105469 125.730469 288.105469 129.113281 Z M 288.105469 129.113281 "/>
<path style=" stroke:none;fill-rule:nonzero;fill:rgb(100%,100%,100%);fill-opacity:1;" d="M 281.375 131.449219 C 281.234375 131.449219 281.101562 131.40625 280.992188 131.324219 L 280.984375 131.316406 L 279.542969 130.214844 C 279.363281 130.078125 279.269531 129.851562 279.296875 129.625 C 279.328125 129.398438 279.476562 129.203125 279.6875 129.117188 C 279.898438 129.027344 280.140625 129.058594 280.324219 129.199219 L 281.253906 129.914062 L 283.457031 127.042969 C 283.671875 126.761719 284.074219 126.707031 284.355469 126.921875 L 284.339844 126.941406 L 284.355469 126.921875 C 284.636719 127.136719 284.6875 127.539062 284.472656 127.820312 L 281.882812 131.199219 C 281.761719 131.359375 281.574219 131.449219 281.375 131.449219 Z M 281.375 131.449219 "/>
<path style=" stroke:none;fill-rule:nonzero;fill:rgb(90.196078%,90.196078%,90.196078%);fill-opacity:1;" d="M 341.039062 180.257812 C 340.976562 180.257812 340.9375 180.257812 340.921875 180.257812 L 333.320312 180.257812 L 333.320312 179.136719 L 340.949219 179.136719 C 341.128906 179.140625 344.734375 179.242188 348.054688 175.210938 C 353.003906 169.207031 357.070312 154.332031 348.324219 117.601562 C 336.566406 68.207031 346.371094 24.570312 351.132812 8.101562 C 351.609375 6.449219 351.28125 4.671875 350.246094 3.296875 C 349.214844 1.925781 347.59375 1.121094 345.875 1.121094 L 232.3125 1.121094 C 230.5625 1.125 228.917969 1.960938 227.882812 3.375 C 225.867188 6.152344 223.097656 11.484375 221.367188 21.125 L 220.261719 20.925781 C 222.03125 11.074219 224.890625 5.585938 226.976562 2.714844 C 228.222656 1.011719 230.203125 0.00390625 232.3125 0 L 345.875 0 C 347.945312 -0.00390625 349.898438 0.96875 351.144531 2.625 C 352.390625 4.28125 352.785156 6.421875 352.210938 8.414062 C 347.472656 24.796875 337.71875 68.207031 349.414062 117.339844 C 358.28125 154.589844 354.019531 169.785156 348.882812 175.972656 C 345.492188 180.050781 341.757812 180.257812 341.039062 180.257812 Z M 341.039062 180.257812 "/>
<path style=" stroke:none;fill-rule:nonzero;fill:rgb(80%,80%,80%);fill-opacity:1;" d="M 320.578125 200.722656 C 320.515625 200.722656 320.476562 200.722656 320.460938 200.71875 L 312.859375 200.722656 L 312.859375 199.601562 L 320.488281 199.601562 C 320.667969 199.605469 324.269531 199.707031 327.59375 195.675781 C 332.542969 189.667969 336.605469 174.796875 327.863281 138.066406 C 316.105469 88.671875 325.910156 45.035156 330.671875 28.566406 C 331.148438 26.914062 330.820312 25.136719 329.785156 23.761719 C 328.75 22.390625 327.132812 21.582031 325.414062 21.585938 L 211.851562 21.585938 C 210.101562 21.589844 208.457031 22.425781 207.421875 23.839844 C 205.40625 26.617188 202.636719 31.949219 200.90625 41.589844 L 199.800781 41.390625 C 201.570312 31.539062 204.429688 26.050781 206.515625 23.179688 C 207.761719 21.476562 209.742188 20.46875 211.851562 20.464844 L 325.414062 20.464844 C 327.484375 20.460938 329.4375 21.433594 330.683594 23.089844 C 331.929688 24.742188 332.324219 26.886719 331.75 28.878906 C 327.011719 45.261719 317.257812 88.671875 328.953125 137.804688 C 337.820312 175.054688 333.558594 190.25 328.421875 196.4375 C 325.03125 200.515625 321.296875 200.722656 320.578125 200.722656 Z M 320.578125 200.722656 "/>
<path style=" stroke:none;fill-rule:nonzero;fill:rgb(24.705882%,23.921569%,33.72549%);fill-opacity:1;" d="M 308.492188 158.273438 C 296.792969 109.136719 306.550781 65.726562 311.289062 49.34375 C 311.863281 47.355469 311.464844 45.210938 310.21875 43.558594 C 308.972656 41.902344 307.023438 40.929688 304.953125 40.929688 L 191.390625 40.929688 C 189.28125 40.933594 187.296875 41.941406 186.054688 43.644531 C 181.472656 49.949219 171.960938 70.855469 182.582031 128.707031 C 188.265625 159.65625 188.179688 180.757812 186.324219 194.660156 C 185.28125 202.484375 183.675781 208.027344 182.21875 211.765625 L 182.066406 212.160156 C 181.757812 212.917969 181.597656 213.722656 181.59375 214.539062 C 181.570312 216.402344 182.347656 218.1875 183.726562 219.441406 C 184.171875 219.855469 184.675781 220.207031 185.222656 220.476562 C 185.675781 220.707031 186.152344 220.882812 186.648438 221 C 187.152344 221.125 187.671875 221.183594 188.191406 221.183594 L 300 221.183594 C 300.015625 221.183594 300.054688 221.1875 300.121094 221.1875 C 300.835938 221.1875 304.570312 220.980469 307.960938 216.902344 C 313.09375 210.714844 317.359375 195.519531 308.492188 158.273438 Z M 307.128906 216.140625 C 303.808594 220.175781 300.203125 220.070312 300.03125 220.066406 L 188.191406 220.066406 C 186.371094 220.066406 184.671875 219.164062 183.652344 217.660156 C 182.757812 216.363281 182.480469 214.734375 182.894531 213.214844 C 182.949219 212.996094 183.015625 212.78125 183.101562 212.574219 C 184.765625 208.300781 185.996094 203.871094 186.78125 199.351562 C 189.4375 184.863281 189.933594 162.503906 183.6875 128.503906 C 173.140625 71.082031 182.464844 50.492188 186.960938 44.304688 C 187.996094 42.890625 189.636719 42.054688 191.390625 42.050781 L 304.953125 42.050781 C 306.671875 42.050781 308.289062 42.855469 309.324219 44.226562 C 310.355469 45.601562 310.6875 47.378906 310.210938 49.03125 C 305.449219 65.5 295.644531 109.136719 307.402344 158.53125 C 316.148438 195.261719 312.082031 210.132812 307.128906 216.140625 Z M 307.128906 216.140625 "/>
<path style=" stroke:none;fill-rule:nonzero;fill:rgb(80%,80%,80%);fill-opacity:1;" d="M 254.539062 94.433594 L 196.03125 94.433594 C 193.554688 94.433594 191.546875 92.421875 191.546875 89.945312 C 191.546875 87.46875 193.554688 85.460938 196.03125 85.460938 L 254.539062 85.460938 C 257.015625 85.460938 259.023438 87.46875 259.023438 89.945312 C 259.023438 92.421875 257.015625 94.433594 254.539062 94.433594 Z M 254.539062 94.433594 "/>
<path style=" stroke:none;fill-rule:nonzero;fill:rgb(80%,80%,80%);fill-opacity:1;" d="M 254.539062 113.75 L 196.03125 113.75 C 193.554688 113.75 191.546875 111.742188 191.546875 109.265625 C 191.546875 106.789062 193.554688 104.78125 196.03125 104.78125 L 254.539062 104.78125 C 257.015625 104.78125 259.023438 106.789062 259.023438 109.265625 C 259.023438 111.742188 257.015625 113.75 254.539062 113.75 Z M 254.539062 113.75 "/>
<path style=" stroke:none;fill-rule:nonzero;fill:rgb(80%,80%,80%);fill-opacity:1;" d="M 259.253906 133.542969 L 200.742188 133.542969 C 198.265625 133.542969 196.257812 131.535156 196.257812 129.058594 C 196.257812 126.578125 198.265625 124.570312 200.742188 124.570312 L 259.253906 124.570312 C 261.730469 124.570312 263.738281 126.578125 263.738281 129.058594 C 263.738281 131.535156 261.730469 133.542969 259.253906 133.542969 Z M 259.253906 133.542969 "/>
<path style=" stroke:none;fill-rule:nonzero;fill:rgb(80%,80%,80%);fill-opacity:1;" d="M 262.550781 154.277344 L 204.039062 154.277344 C 201.5625 154.277344 199.554688 152.269531 199.554688 149.789062 C 199.554688 147.3125 201.5625 145.304688 204.039062 145.304688 L 262.550781 145.304688 C 265.027344 145.304688 267.035156 147.3125 267.035156 149.789062 C 267.035156 152.269531 265.027344 154.277344 262.550781 154.277344 Z M 262.550781 154.277344 "/>
<path style=" stroke:none;fill-rule:nonzero;fill:rgb(100%,100%,100%);fill-opacity:1;" d="M 262.574219 59.605469 L 220.53125 59.605469 C 218.925781 59.605469 217.445312 58.75 216.644531 57.363281 C 215.839844 55.972656 215.839844 54.261719 216.644531 52.875 C 217.445312 51.488281 218.925781 50.632812 220.53125 50.632812 L 262.574219 50.632812 C 265.050781 50.632812 267.058594 52.640625 267.058594 55.117188 C 267.058594 57.597656 265.050781 59.605469 262.574219 59.605469 Z M 262.574219 59.605469 "/>
<path style=" stroke:none;fill-rule:nonzero;fill:rgb(80%,80%,80%);fill-opacity:1;" d="M 291.875 149.789062 C 291.875 153.175781 289.132812 155.917969 285.75 155.917969 C 282.367188 155.917969 279.625 153.175781 279.625 149.789062 C 279.625 146.40625 282.367188 143.664062 285.75 143.664062 C 289.132812 143.664062 291.875 146.40625 291.875 149.789062 Z M 291.875 149.789062 "/>
<path style=" stroke:none;fill-rule:nonzero;fill:rgb(80%,80%,80%);fill-opacity:1;" d="M 265.375 174.539062 L 206.867188 174.539062 C 204.390625 174.539062 202.382812 172.53125 202.382812 170.054688 C 202.382812 167.574219 204.390625 165.566406 206.867188 165.566406 L 265.375 165.566406 C 267.855469 165.566406 269.863281 167.574219 269.863281 170.054688 C 269.863281 172.53125 267.855469 174.539062 265.375 174.539062 Z M 265.375 174.539062 "/>
<path style=" stroke:none;fill-rule:nonzero;fill:rgb(80%,80%,80%);fill-opacity:1;" d="M 294.699219 170.054688 C 294.699219 173.4375 291.957031 176.179688 288.578125 176.179688 C 285.195312 176.179688 282.453125 173.4375 282.453125 170.054688 C 282.453125 166.667969 285.195312 163.925781 288.578125 163.925781 C 291.957031 163.925781 294.699219 166.667969 294.699219 170.054688 Z M 294.699219 170.054688 "/>
</g>
</svg>
